# xmcd CD database file
#
# Track frame offsets:
#	150
#	19809
#	39468
#	51200
#	65749
#	85045
#	99789
#	117084
#	134382
#	148538
#	164318
#	181114
#	196617
#	211565
#	231800
#	248166
#	263481
#	293995
#	308323
#	322557
#	342001
#
# Disc length: 4800 seconds
#
# Revision: 0
# Processed by: cddbd v1.5.2PL0 Copyright (c) Steve Scherf et al.
# Submitted via: CDex 1.51
#
DISCID=0712be15
DTITLE=Rozni wykonawcy - Antologia Polskiego Bluesa 3 - CD4 Czarodzieje harmonijki
DYEAR=2011
DGENRE=Blues
TTITLE0=Michal Cielak Kielak - Wodka blues
TTITLE1=Tadeusz Trzcinski (Breakout) - Jest gdzies taki dom
TTITLE2=Jozef Skrzek - Jestem suchy
TTITLE3=Ryszard Skiba Skibinski (Kasa Chorych) - Zgnila porzeczka
TTITLE4=Irek Dudek - Niby zwykly dzien
TTITLE5=Slawek Wierzcholski (Nocna Zmiana Bluesa) - Kule
TTITLE6=Jan Skrzek - Song o stryju Jozefie
TTITLE7=Przemyslaw Losos (Open Blues) - Seta w ryja
TTITLE8=Robert Lenert (Los Agentos) - Leniwiec
TTITLE9=Przemyslaw Janik/Tomasz Nitribitt (Outsider) - I'm Ready
TTITLE10=Lukasz Rumpel (Teenage Beat) - Czujna Mama, czujny Tata
TTITLE11=Pawel Szymanski - Niczyja sprawa
TTITLE12=Jacek Urlik (Tipsy Drivers) - Sad Hours
TTITLE13=Tomek Kiersnowski (Klusem z Blusem) - Scratch My Back
TTITLE14=Roman Badenski (The Moongang) - More And More
TTITLE15=Bartosz Leczycki - Memories Of The Past
TTITLE16=Lukasz Wisniewski (Blue Machine) - I Put A Spell On You
TTITLE17=Tomek Kaminski (Formacja FRU) - Too Much Of Anything
TTITLE18=Dawid Wydra (Marek Makaron Trio) - Po furmanie
TTITLE19=Przemek Cholody (Cholody Blues Trio) - Charlie
TTITLE20=Samuel Owczarek (Tortilla) - Room To Move
EXTD=YEAR: 2011
EXTT0=
EXTT1=
EXTT2=
EXTT3=
EXTT4=
EXTT5=
EXTT6=
EXTT7=
EXTT8=
EXTT9=
EXTT10=
EXTT11=
EXTT12=
EXTT13=
EXTT14=
EXTT15=
EXTT16=
EXTT17=
EXTT18=
EXTT19=
EXTT20=
PLAYORDER=
